<mxfile host="app.diagrams.net" modified="2024-05-02T21:22:48.138Z" agent="Mozilla/5.0 (Windows NT 10.0; Win64; x64) AppleWebKit/537.36 (KHTML, like Gecko) Chrome/124.0.0.0 Safari/537.36" etag="KccsBhRlUYDolX68egdX" version="24.3.1" type="device">
  <diagram name="Page-1" id="IFeGXaQsRpvaNuw1glQz">
    <mxGraphModel dx="2954" dy="1106" grid="1" gridSize="10" guides="1" tooltips="1" connect="1" arrows="1" fold="1" page="1" pageScale="1" pageWidth="827" pageHeight="1169" math="0" shadow="0">
      <root>
        <mxCell id="0" />
        <mxCell id="1" parent="0" />
        <mxCell id="CpeT_pX79ueiZBnA0jLG-7" style="edgeStyle=orthogonalEdgeStyle;rounded=0;orthogonalLoop=1;jettySize=auto;html=1;exitX=0.75;exitY=1;exitDx=0;exitDy=0;endArrow=classicThin;endFill=1;startArrow=classic;startFill=1;" edge="1" parent="1" source="CpeT_pX79ueiZBnA0jLG-1" target="CpeT_pX79ueiZBnA0jLG-2">
          <mxGeometry relative="1" as="geometry" />
        </mxCell>
        <mxCell id="CpeT_pX79ueiZBnA0jLG-1" value="VPC" style="points=[[0,0],[0.25,0],[0.5,0],[0.75,0],[1,0],[1,0.25],[1,0.5],[1,0.75],[1,1],[0.75,1],[0.5,1],[0.25,1],[0,1],[0,0.75],[0,0.5],[0,0.25]];outlineConnect=0;gradientColor=none;html=1;whiteSpace=wrap;fontSize=12;fontStyle=0;container=1;pointerEvents=0;collapsible=0;recursiveResize=0;shape=mxgraph.aws4.group;grIcon=mxgraph.aws4.group_vpc2;strokeColor=#8C4FFF;fillColor=none;verticalAlign=top;align=left;spacingLeft=30;fontColor=#AAB7B8;dashed=0;" vertex="1" parent="1">
          <mxGeometry x="110" y="180" width="210" height="190" as="geometry" />
        </mxCell>
        <mxCell id="CpeT_pX79ueiZBnA0jLG-4" value="Redshift" style="sketch=0;points=[[0,0,0],[0.25,0,0],[0.5,0,0],[0.75,0,0],[1,0,0],[0,1,0],[0.25,1,0],[0.5,1,0],[0.75,1,0],[1,1,0],[0,0.25,0],[0,0.5,0],[0,0.75,0],[1,0.25,0],[1,0.5,0],[1,0.75,0]];outlineConnect=0;fontColor=#232F3E;fillColor=#C925D1;strokeColor=#ffffff;dashed=0;verticalLabelPosition=bottom;verticalAlign=top;align=center;html=1;fontSize=12;fontStyle=0;aspect=fixed;shape=mxgraph.aws4.resourceIcon;resIcon=mxgraph.aws4.redshift;" vertex="1" parent="CpeT_pX79ueiZBnA0jLG-1">
          <mxGeometry x="66" y="56" width="78" height="78" as="geometry" />
        </mxCell>
        <mxCell id="CpeT_pX79ueiZBnA0jLG-8" style="edgeStyle=orthogonalEdgeStyle;rounded=0;orthogonalLoop=1;jettySize=auto;html=1;exitX=1;exitY=0.5;exitDx=0;exitDy=0;exitPerimeter=0;startArrow=classic;startFill=1;" edge="1" parent="1" source="CpeT_pX79ueiZBnA0jLG-2" target="CpeT_pX79ueiZBnA0jLG-6">
          <mxGeometry relative="1" as="geometry" />
        </mxCell>
        <mxCell id="CpeT_pX79ueiZBnA0jLG-2" value="Transit Gateway" style="sketch=0;points=[[0,0,0],[0.25,0,0],[0.5,0,0],[0.75,0,0],[1,0,0],[0,1,0],[0.25,1,0],[0.5,1,0],[0.75,1,0],[1,1,0],[0,0.25,0],[0,0.5,0],[0,0.75,0],[1,0.25,0],[1,0.5,0],[1,0.75,0]];outlineConnect=0;fontColor=#232F3E;fillColor=#8C4FFF;strokeColor=#ffffff;dashed=0;verticalLabelPosition=bottom;verticalAlign=top;align=center;html=1;fontSize=12;fontStyle=0;aspect=fixed;shape=mxgraph.aws4.resourceIcon;resIcon=mxgraph.aws4.transit_gateway;" vertex="1" parent="1">
          <mxGeometry x="430" y="370" width="78" height="78" as="geometry" />
        </mxCell>
        <mxCell id="CpeT_pX79ueiZBnA0jLG-6" value="On-Premise" style="sketch=0;outlineConnect=0;gradientColor=none;html=1;whiteSpace=wrap;fontSize=12;fontStyle=0;shape=mxgraph.aws4.group;grIcon=mxgraph.aws4.group_on_premise;strokeColor=#858B94;fillColor=none;verticalAlign=top;align=left;spacingLeft=30;fontColor=#858B94;dashed=0;" vertex="1" parent="1">
          <mxGeometry x="580" y="210" width="130" height="130" as="geometry" />
        </mxCell>
        <mxCell id="CpeT_pX79ueiZBnA0jLG-9" value="application" style="verticalLabelPosition=bottom;html=1;verticalAlign=top;align=center;strokeColor=none;fillColor=#00BEF2;shape=mxgraph.azure.computer;pointerEvents=1;" vertex="1" parent="1">
          <mxGeometry x="620" y="252.5" width="50" height="45" as="geometry" />
        </mxCell>
        <mxCell id="CpeT_pX79ueiZBnA0jLG-10" style="edgeStyle=orthogonalEdgeStyle;rounded=0;orthogonalLoop=1;jettySize=auto;html=1;entryX=1;entryY=0.5;entryDx=0;entryDy=0;entryPerimeter=0;dashed=1;dashPattern=12 12;" edge="1" parent="1" source="CpeT_pX79ueiZBnA0jLG-9" target="CpeT_pX79ueiZBnA0jLG-4">
          <mxGeometry relative="1" as="geometry" />
        </mxCell>
      </root>
    </mxGraphModel>
  </diagram>
</mxfile>
